HIERARCHY
ROOT Hips
{
	OFFSET -0.001795 -0.223333 0.028219
	CHANNELS 6 Xposition Yposition Zposition Zrotation Yrotation Xrotation 
	JOINT LeftUpLeg
	{
		OFFSET 0.069520 -0.091406 -0.006815
		CHANNELS 3 Zrotation Yrotation Xrotation
		JOINT LeftLeg
		{
			OFFSET 0.034277 -0.375199 -0.004496
			CHANNELS 3 Zrotation Yrotation Xrotation
			JOINT LeftFoot
			{
				OFFSET -0.013596 -0.397961 -0.043693
				CHANNELS 3 Zrotation Yrotation Xrotation
				JOINT LeftToe
				{
					OFFSET 0.026358 -0.055791 0.119288
					CHANNELS 3 Zrotation Yrotation Xrotation
					End Site
					{
						OFFSET 0.000000 0.000000 0.000000
					}
				}
			}
		}
	}
	JOINT RightUpLeg
	{
		OFFSET -0.067670 -0.090522 -0.004320
		CHANNELS 3 Zrotation Yrotation Xrotation
		JOINT RightLeg
		{
			OFFSET -0.038290 -0.382569 -0.008850
			CHANNELS 3 Zrotation Yrotation Xrotation
			JOINT RightFoot
			{
				OFFSET 0.015774 -0.398415 -0.042312
				CHANNELS 3 Zrotation Yrotation Xrotation
				JOINT RightToe
				{
					OFFSET -0.025372 -0.048144 0.123348
					CHANNELS 3 Zrotation Yrotation Xrotation
					End Site
					{
						OFFSET 0.000000 0.000000 0.000000
					}
				}
			}
		}
	}
	JOINT Spine
	{
		OFFSET -0.002533 0.108963 -0.026696
		CHANNELS 3 Zrotation Yrotation Xrotation
		JOINT Spine1
		{
			OFFSET 0.005487 0.135180 0.001092
			CHANNELS 3 Zrotation Yrotation Xrotation
			JOINT Spine2
			{
				OFFSET 0.001457 0.052922 0.025425
				CHANNELS 3 Zrotation Yrotation Xrotation
				JOINT Neck
				{
					OFFSET -0.002778 0.213870 -0.042857
					CHANNELS 3 Zrotation Yrotation Xrotation
					JOINT Head
					{
						OFFSET 0.005152 0.064970 0.051349
						CHANNELS 3 Zrotation Yrotation Xrotation
						End Site
						{
							OFFSET 0.000000 0.000000 0.000000
						}
					}
				}
				JOINT LeftShoulder
				{
					OFFSET 0.078845 0.121749 -0.034090
					CHANNELS 3 Zrotation Yrotation Xrotation
					JOINT LeftArm
					{
						OFFSET 0.090977 0.030469 -0.008868
						CHANNELS 3 Zrotation Yrotation Xrotation
						JOINT LeftForeArm
						{
							OFFSET 0.259612 -0.012772 -0.027456
							CHANNELS 3 Zrotation Yrotation Xrotation
							JOINT LeftHand
							{
								OFFSET 0.249234 0.008986 -0.001171
								CHANNELS 3 Zrotation Yrotation Xrotation
								End Site
								{
									OFFSET 0.000000 0.000000 0.000000
								}
							}
						}
					}
				}
				JOINT RightShoulder
				{
					OFFSET -0.081759 0.118833 -0.038615
					CHANNELS 3 Zrotation Yrotation Xrotation
					JOINT RightArm
					{
						OFFSET -0.096012 0.032551 -0.009143
						CHANNELS 3 Zrotation Yrotation Xrotation
						JOINT RightForeArm
						{
							OFFSET -0.253742 -0.013329 -0.021401
							CHANNELS 3 Zrotation Yrotation Xrotation
							JOINT RightHand
							{
								OFFSET -0.255298 0.007772 -0.005559
								CHANNELS 3 Zrotation Yrotation Xrotation
								End Site
								{
									OFFSET 0.000000 0.000000 0.000000
								}
							}
						}
					}
				}
			}
		}
	}
}
MOTION
Frames: 6
Frame Time: 0.050000
1.922253 0.971244 1.875453 -6.763023 -26.064208 2.683023 -5.131882 0.563800 4.085142 3.584805 -0.583967 1.868694 3.372951 7.244934 11.893900 0.000000 0.000000 0.000000 -2.490938 1.999798 -17.163438 1.082545 1.491317 18.141813 -0.419450 -11.024701 15.897040 0.000000 0.000000 0.000000 -4.981051 0.497479 12.947915 9.999114 -1.363500 -27.661436 -3.191702 -1.174262 33.292224 -9.275724 3.963831 -30.789044 0.000000 0.000000 0.000000 -29.493096 7.225290 0.357689 -46.537079 -19.839535 -2.911380 -10.586328 -47.976277 10.659901 0.000000 0.000000 0.000000 17.044358 2.303156 -4.169418 52.860509 -5.368132 -9.870455 7.146204 26.274834 1.650960 0.000000 0.000000 0.000000 
1.896040 0.966895 1.910201 -5.966272 -20.597304 2.668441 -4.261885 0.736006 5.225806 3.434434 -0.624576 3.788941 1.776847 4.851092 9.215048 0.000000 0.000000 0.000000 -2.373842 1.925598 -17.245963 -0.549593 0.353584 5.208545 2.244913 -6.080197 16.145062 0.000000 0.000000 0.000000 -5.082270 0.438260 13.125738 10.200901 -1.414421 -27.702865 -3.296987 -1.715734 32.053148 -8.757506 4.205819 -29.993478 0.000000 0.000000 0.000000 -30.050984 6.747330 -0.497415 -45.705463 -19.196310 -2.848321 -12.040300 -51.048860 11.772022 0.000000 0.000000 0.000000 17.103371 2.818850 -3.074697 53.379420 -3.810558 -9.335948 5.784182 26.994594 1.624795 0.000000 0.000000 0.000000 
1.868901 0.961531 1.948368 -5.442155 -17.191078 2.984804 -3.104898 0.725291 5.479572 4.512641 -0.959248 7.735831 -0.947823 -0.333895 6.735555 0.000000 0.000000 0.000000 -2.072019 2.135741 -19.011049 0.492439 0.047601 1.850553 4.693865 -3.337174 20.287851 0.000000 0.000000 0.000000 -5.258412 0.382947 12.428244 10.860101 -1.472977 -28.112155 -3.255138 -0.855906 32.265144 -8.712643 4.773309 -28.479277 0.000000 0.000000 0.000000 -30.040605 7.679833 -2.379196 -45.288172 -17.682749 -3.106047 -14.369535 -52.404732 12.895044 0.000000 0.000000 0.000000 18.228611 4.062677 -1.827677 52.884325 -1.752982 -8.428470 4.913278 29.909343 1.838557 0.000000 0.000000 0.000000 
1.841082 0.958429 1.991096 -5.186777 -12.268930 2.326667 -1.097820 0.544545 4.859052 5.505606 -1.474841 13.788068 -4.129815 -5.126094 8.700732 0.000000 0.000000 0.000000 -1.607073 1.895873 -17.743090 1.008880 0.093499 4.344764 3.426940 -5.970692 24.456205 0.000000 0.000000 0.000000 -4.712794 0.202564 11.725268 10.566380 -1.840672 -25.529608 -2.304908 -0.177194 29.663223 -7.993971 5.061684 -26.942793 0.000000 0.000000 0.000000 -31.019988 7.639253 -4.176021 -43.917168 -14.729283 -3.431562 -14.417828 -49.965917 11.195447 0.000000 0.000000 0.000000 19.120432 5.328277 -0.219911 52.606060 1.177333 -7.008089 1.646805 29.380448 1.291700 0.000000 0.000000 0.000000 
1.814823 0.957365 2.035917 -5.447666 -8.840354 2.198668 2.302119 0.030772 0.344026 2.339391 -0.972143 26.427851 -3.509144 -2.678999 10.840568 0.000000 0.000000 0.000000 -0.913679 1.775491 -16.735673 1.825234 0.124653 8.237772 1.075705 -8.950708 25.511130 0.000000 0.000000 0.000000 -2.582728 -0.111060 11.059738 8.910500 -1.227174 -27.650321 -1.121669 1.667335 31.185636 -7.853253 5.838442 -23.499299 0.000000 0.000000 0.000000 -32.166826 6.971750 -5.319616 -43.202700 -11.638571 -4.236467 -14.387574 -46.219429 9.610033 0.000000 0.000000 0.000000 19.281506 5.588956 1.086571 52.143732 2.894470 -6.657266 1.851166 28.129076 1.549094 0.000000 0.000000 0.000000 
1.793656 0.958912 2.078443 -5.655994 -3.782657 0.884305 4.619361 -0.395091 -7.697923 -0.342689 -0.625677 43.023768 -1.441493 4.021968 18.452908 0.000000 0.000000 0.000000 -0.280895 1.353002 -13.134526 2.655407 -0.040477 10.086830 -1.812741 -12.120694 26.466461 0.000000 0.000000 0.000000 -2.028725 -0.256492 12.437012 9.184556 -1.190310 -28.375109 0.278402 3.429268 30.990144 -7.315011 6.290876 -23.792549 0.000000 0.000000 0.000000 -35.016574 6.424850 -7.749320 -40.922694 -7.805736 -4.555918 -14.976981 -41.538892 7.981010 0.000000 0.000000 0.000000 18.379259 6.347238 2.874091 51.383770 4.458830 -6.134900 1.866434 27.826260 1.766086 0.000000 0.000000 0.000000 
